<svg width="36" height="109" viewBox="0 0 36 109" fill="none" xmlns="http://www.w3.org/2000/svg">
<path d="M7.37594 96.7666C7.37594 98.4357 7.72981 100.416 10.239 102.581L3.21692 102.581C1.44302 102.581 -2.17663e-07 104.02 -1.40298e-07 105.79C-6.29338e-08 107.56 1.44302 109 3.21692 109L26.1168 109C27.8907 109 29.3337 107.56 29.3337 105.79C29.3337 104.02 27.8907 102.581 26.1168 102.581L17.2289 102.581C14.6738 102.581 13.2629 101.37 13.2629 99.1647C13.2629 97.0051 14.6324 95.8679 17.2289 95.8679L26.1168 95.8679C27.8907 95.8679 29.3337 94.4282 29.3337 92.6583C29.3337 90.8884 27.8907 89.4486 26.1168 89.4486L15.3631 89.4486C10.3631 89.4532 7.37594 92.186 7.37594 96.7666Z" fill="#FF6400"/>
<path d="M7.53232 78.3333C7.53232 80.9469 7.87239 83.0194 8.63526 85.0507C9.03049 86.1053 10.0507 86.8114 11.172 86.8114C12.6702 86.8114 13.8421 85.6238 13.8421 84.1061C13.8421 83.7943 13.7961 83.533 13.6766 83.1753C13.2906 81.9419 13.1068 80.6397 13.1068 79.1862C13.1068 75.7381 15.014 75.0045 16.627 74.9953C16.2364 76.192 15.8779 77.7006 15.8779 79.8052C15.8779 85.2891 18.3917 88.4346 22.7805 88.4346L22.8587 88.4346C26.8247 88.4346 29.4901 85.4634 29.4901 81.0432C29.4901 78.5534 28.7318 76.5589 27.1785 74.9678C28.3136 74.6973 29.3385 73.6106 29.3385 71.9415C29.3385 70.1854 27.9782 68.8099 26.241 68.8099L16.7603 68.8099C13.7777 68.8099 11.4799 69.5893 9.93582 71.1346C8.34114 72.7302 7.53232 75.1512 7.53232 78.3333ZM24.8807 79.2641C24.8807 81.0845 24.0168 82.2124 22.6243 82.2124L22.5462 82.2124C20.8871 82.2124 19.9405 80.8277 19.9404 78.4113C19.9404 77.1733 20.184 75.9399 20.6252 74.9174L21.503 74.9174C23.4883 74.9174 24.8807 76.7056 24.8807 79.2641Z" fill="#FF6400"/>
<path d="M7.37613 53.9726C7.37613 56.5036 8.33201 58.5486 10.2943 60.2085C8.73643 60.4286 7.53238 61.7675 7.53238 63.3861C7.53238 65.1559 8.9754 66.5957 10.7493 66.5957L32.3303 66.5957C34.1042 66.5957 35.5472 65.1559 35.5472 63.386C35.5472 61.6162 34.1042 60.1764 32.3303 60.1764L26.8155 60.1764C28.6354 58.4569 29.4902 56.4715 29.4902 53.9726C29.4902 51.3774 28.4792 48.9793 26.6363 47.214C24.6234 45.2836 21.8017 44.2611 18.4699 44.2611L18.3918 44.2611C11.1583 44.2611 7.37613 49.1444 7.37613 53.9726ZM12.9138 55.4857C12.9138 52.7438 15.2714 50.6758 18.3918 50.6758L18.4699 50.6758C21.6455 50.6758 23.9479 52.6979 23.9479 55.4857C23.9479 58.2506 21.6455 60.2543 18.4699 60.2543L18.3918 60.2543C15.2162 60.2543 12.9138 58.246 12.9138 55.4857Z" fill="#FF6400"/>
<path d="M7.37613 30.1572C7.37613 32.6882 8.33201 34.7332 10.2943 36.3931C8.73643 36.6132 7.53238 37.952 7.53238 39.5706C7.53238 41.3405 8.9754 42.7803 10.7493 42.7803L32.3303 42.7803C34.1042 42.7803 35.5472 41.3405 35.5472 39.5706C35.5472 37.8007 34.1042 36.361 32.3303 36.361L26.8155 36.361C28.6354 34.6415 29.4902 32.6561 29.4902 30.1572C29.4902 27.5619 28.4792 25.1639 26.6363 23.3986C24.6234 21.4682 21.8017 20.4457 18.4699 20.4457L18.3918 20.4457C11.1583 20.4457 7.37613 25.3289 7.37613 30.1572ZM12.9138 31.6703C12.9138 28.9283 15.2714 26.8604 18.3918 26.8604L18.4699 26.8604C21.6455 26.8604 23.9479 28.8825 23.9479 31.6703C23.9479 34.4352 21.6455 36.4389 18.4699 36.4389L18.3918 36.4389C15.2162 36.4389 12.9138 34.4306 12.9138 31.6703Z" fill="#FF6400"/>
<path d="M7.53233 3.04935C7.53233 4.46619 8.36873 5.52995 9.95881 6.12603L21.3467 10.2206L9.91745 14.462C8.30899 15.0397 7.52774 16.0484 7.52774 17.5386C7.52774 19.3452 8.86047 20.707 10.6252 20.707C11.0618 20.707 11.6868 20.5374 12.0912 20.3769L28.4469 13.334L28.7962 13.4807C29.7291 13.9668 29.8854 14.3703 29.8854 15.3332C29.8854 15.7137 29.821 15.9888 29.6648 16.4886C29.5821 16.7316 29.4947 17.0343 29.4947 17.5386C29.4947 18.8087 30.492 20.1247 32.1648 20.1247C33.8652 20.1247 34.5821 18.85 34.8578 18.0935C35.253 16.993 35.4185 16.0347 35.4185 14.7875C35.4185 11.2523 33.8514 9.35403 29.435 7.5337L12.0085 0.293648C11.6868 0.156091 10.9882 0.000187029 10.5057 0.00018705C8.84208 -0.00439809 7.53233 1.33907 7.53233 3.04935Z" fill="#FF6400"/>
</svg>
