<svg width="216" height="62" viewBox="0 0 216 62" fill="none" xmlns="http://www.w3.org/2000/svg">
<path d="M101.281 30.4661C106.552 30.4661 109.187 33.5459 109.187 39.7056V51.0136C109.187 51.8717 108.927 52.5459 108.406 53.0362C107.916 53.5265 107.226 53.7717 106.337 53.7717C105.449 53.7717 104.744 53.5265 104.223 53.0362C103.702 52.5459 103.442 51.8717 103.442 51.0136V39.7056C103.442 38.0814 103.104 36.9016 102.43 36.1661C101.787 35.4 100.76 35.0169 99.3504 35.0169C97.6956 35.0169 96.3625 35.5379 95.3512 36.5798C94.3706 37.6217 93.8803 39.0161 93.8803 40.7628V51.0136C93.8803 51.8717 93.6198 52.5459 93.0988 53.0362C92.5779 53.5265 91.873 53.7717 90.9843 53.7717C90.0956 53.7717 89.3908 53.5265 88.8698 53.0362C88.3795 52.5459 88.1343 51.8717 88.1343 51.0136V23.525C88.1343 22.7282 88.3948 22.0847 88.9158 21.5944C89.4674 21.104 90.1722 20.8589 91.0303 20.8589C91.8884 20.8589 92.5779 21.0887 93.0988 21.5484C93.6198 22.0081 93.8803 22.6363 93.8803 23.4331V34.1435C94.6464 32.9484 95.6577 32.0443 96.9141 31.4314C98.2012 30.7879 99.6569 30.4661 101.281 30.4661Z" fill="white"/>
<path d="M124.769 30.4661C127.894 30.4661 130.208 31.2476 131.71 32.8104C133.242 34.3427 134.008 36.687 134.008 39.8435V51.0596C134.008 51.887 133.763 52.5459 133.273 53.0362C132.782 53.4958 132.108 53.7257 131.25 53.7257C130.453 53.7257 129.794 53.4805 129.274 52.9902C128.783 52.4999 128.538 51.8563 128.538 51.0596V50.0483C128.017 51.2434 127.19 52.1781 126.056 52.8523C124.953 53.5265 123.665 53.8636 122.194 53.8636C120.693 53.8636 119.329 53.5571 118.103 52.9442C116.878 52.3313 115.912 51.4886 115.207 50.416C114.503 49.3434 114.15 48.1483 114.15 46.8306C114.15 45.1757 114.564 43.8733 115.391 42.9233C116.249 41.9733 117.628 41.2838 119.528 40.8548C121.428 40.4257 124.049 40.2112 127.389 40.2112H128.538V39.154C128.538 37.6524 128.216 36.5645 127.573 35.8903C126.929 35.1854 125.887 34.833 124.447 34.833C123.558 34.833 122.654 34.9709 121.735 35.2467C120.815 35.4919 119.728 35.8596 118.471 36.35C117.674 36.7483 117.092 36.9475 116.724 36.9475C116.173 36.9475 115.713 36.7483 115.345 36.35C115.008 35.9516 114.84 35.4306 114.84 34.7871C114.84 34.2661 114.962 33.8217 115.207 33.454C115.483 33.0556 115.928 32.6879 116.54 32.3508C117.613 31.7685 118.885 31.3088 120.356 30.9717C121.857 30.6347 123.328 30.4661 124.769 30.4661ZM123.344 49.7265C124.876 49.7265 126.117 49.2209 127.067 48.2096C128.048 47.1677 128.538 45.8346 128.538 44.2104V43.2451H127.711C125.657 43.2451 124.064 43.337 122.93 43.5209C121.796 43.7048 120.984 44.0265 120.494 44.4862C120.003 44.9459 119.758 45.5741 119.758 46.3709C119.758 47.3515 120.095 48.1636 120.77 48.8072C121.474 49.4201 122.332 49.7265 123.344 49.7265Z" fill="white"/>
<path d="M152.765 30.4661C154.695 30.4661 156.411 30.9564 157.913 31.9371C159.445 32.9177 160.625 34.3121 161.453 36.1201C162.311 37.8975 162.74 39.9507 162.74 42.2798C162.74 44.6088 162.311 46.6467 161.453 48.3934C160.625 50.1402 159.461 51.4886 157.959 52.4386C156.457 53.3886 154.726 53.8636 152.765 53.8636C151.171 53.8636 149.746 53.5265 148.49 52.8523C147.233 52.1781 146.268 51.2434 145.594 50.0483V59.4257C145.594 60.2224 145.333 60.8507 144.812 61.3103C144.291 61.77 143.602 61.9998 142.744 61.9998C141.886 61.9998 141.181 61.7547 140.629 61.2644C140.108 60.774 139.848 60.1305 139.848 59.3337V33.2701C139.848 32.4427 140.093 31.7838 140.583 31.2935C141.104 30.8032 141.794 30.558 142.652 30.558C143.51 30.558 144.199 30.8032 144.72 31.2935C145.241 31.7838 145.502 32.4427 145.502 33.2701V34.4193C146.176 33.1629 147.141 32.1975 148.398 31.5234C149.685 30.8185 151.141 30.4661 152.765 30.4661ZM151.248 49.4047C153.056 49.4047 154.466 48.7918 155.477 47.566C156.488 46.3096 156.994 44.5475 156.994 42.2798C156.994 39.9507 156.488 38.1427 155.477 36.8556C154.466 35.5685 153.056 34.925 151.248 34.925C149.409 34.925 147.984 35.5532 146.973 36.8096C145.992 38.0661 145.502 39.8588 145.502 42.1878C145.502 44.4862 145.992 46.2636 146.973 47.5201C147.984 48.7765 149.409 49.4047 151.248 49.4047Z" fill="white"/>
<path d="M180.372 30.4661C182.303 30.4661 184.019 30.9564 185.521 31.9371C187.053 32.9177 188.233 34.3121 189.06 36.1201C189.918 37.8975 190.347 39.9507 190.347 42.2798C190.347 44.6088 189.918 46.6467 189.06 48.3934C188.233 50.1402 187.068 51.4886 185.567 52.4386C184.065 53.3886 182.333 53.8636 180.372 53.8636C178.779 53.8636 177.354 53.5265 176.097 52.8523C174.841 52.1781 173.875 51.2434 173.201 50.0483V59.4257C173.201 60.2224 172.941 60.8507 172.42 61.3103C171.899 61.77 171.209 61.9998 170.351 61.9998C169.493 61.9998 168.788 61.7547 168.237 61.2644C167.716 60.774 167.455 60.1305 167.455 59.3337V33.2701C167.455 32.4427 167.7 31.7838 168.191 31.2935C168.712 30.8032 169.401 30.558 170.259 30.558C171.117 30.558 171.807 30.8032 172.328 31.2935C172.849 31.7838 173.109 32.4427 173.109 33.2701V34.4193C173.784 33.1629 174.749 32.1975 176.005 31.5234C177.292 30.8185 178.748 30.4661 180.372 30.4661ZM178.855 49.4047C180.663 49.4047 182.073 48.7918 183.084 47.566C184.096 46.3096 184.601 44.5475 184.601 42.2798C184.601 39.9507 184.096 38.1427 183.084 36.8556C182.073 35.5685 180.663 34.925 178.855 34.925C177.017 34.925 175.592 35.5532 174.58 36.8096C173.6 38.0661 173.109 39.8588 173.109 42.1878C173.109 44.4862 173.6 46.2636 174.58 47.5201C175.592 48.7765 177.017 49.4047 178.855 49.4047Z" fill="white"/>
<path d="M210.379 32.2129C210.624 31.6613 210.946 31.2629 211.344 31.0177C211.773 30.7419 212.233 30.604 212.723 30.604C213.428 30.604 214.056 30.8492 214.608 31.3395C215.19 31.7992 215.481 32.3814 215.481 33.0863C215.481 33.4234 215.389 33.7758 215.205 34.1435L202.656 60.437C202.135 61.4789 201.323 61.9998 200.22 61.9998C199.515 61.9998 198.887 61.77 198.335 61.3103C197.814 60.8813 197.554 60.3297 197.554 59.6555C197.554 59.3184 197.646 58.9353 197.829 58.5063L200.955 51.933L192.405 34.1435C192.252 33.8371 192.175 33.4846 192.175 33.0863C192.175 32.3814 192.467 31.7838 193.049 31.2935C193.662 30.8032 194.351 30.558 195.117 30.558C195.638 30.558 196.113 30.6959 196.542 30.9717C196.971 31.2169 197.308 31.6153 197.554 32.1669L203.989 46.3709L210.379 32.2129Z" fill="white"/>
<path d="M42.2196 32.3903C42.2196 33.7732 41.0984 34.8943 39.7155 34.8943C38.3325 34.8943 37.2114 33.7732 37.2114 32.3903C37.2114 31.0073 38.3325 29.8862 39.7155 29.8862C41.0984 29.8862 42.2196 31.0073 42.2196 32.3903Z" fill="white"/>
<path d="M56.5148 32.3903C56.5148 33.7732 55.3937 34.8943 54.0107 34.8943C52.6277 34.8943 51.5066 33.7732 51.5066 32.3903C51.5066 31.0073 52.6277 29.8862 54.0107 29.8862C55.3937 29.8862 56.5148 31.0073 56.5148 32.3903Z" fill="white"/>
<path fill-rule="evenodd" clip-rule="evenodd" d="M46.8424 16.6504C32.9293 16.6504 21.6504 27.9293 21.6504 41.8425C21.6504 43.1266 20.6094 44.1677 19.3252 44.1677C18.041 44.1677 17 43.1266 17 41.8425C17 25.3609 30.3609 12 46.8424 12C63.324 12 76.6849 25.3609 76.6849 41.8425C76.6849 43.1266 75.6439 44.1677 74.3597 44.1677C73.0755 44.1677 72.0345 43.1266 72.0345 41.8425C72.0345 27.9293 60.7556 16.6504 46.8424 16.6504Z" fill="white"/>
<path fill-rule="evenodd" clip-rule="evenodd" d="M19.3252 39.5172C20.6094 39.5172 21.6504 40.5583 21.6504 41.8425C21.6504 50.0566 28.3093 56.7155 36.5235 56.7155C44.7377 56.7155 51.3966 50.0566 51.3966 41.8425C51.3966 40.5583 52.4376 39.5172 53.7218 39.5172C55.0059 39.5172 56.047 40.5583 56.047 41.8425C56.047 52.625 47.306 61.3659 36.5235 61.3659C25.741 61.3659 17 52.625 17 41.8425C17 40.5583 18.041 39.5172 19.3252 39.5172Z" fill="white"/>
<path fill-rule="evenodd" clip-rule="evenodd" d="M39.9631 39.5172C41.2473 39.5172 42.2883 40.5583 42.2883 41.8425C42.2883 50.0566 48.9472 56.7155 57.1614 56.7155C65.3756 56.7155 72.0345 50.0566 72.0345 41.8425C72.0345 40.5583 73.0755 39.5172 74.3597 39.5172C75.6439 39.5172 76.6849 40.5583 76.6849 41.8425C76.6849 52.625 67.9439 61.3659 57.1614 61.3659C46.3789 61.3659 37.6379 52.625 37.6379 41.8425C37.6379 40.5583 38.679 39.5172 39.9631 39.5172Z" fill="white"/>
<path d="M18.7872 9.16455C19.5042 9.18282 20.1002 9.44194 20.5754 9.9419C21.0505 10.4419 21.2789 11.0503 21.2606 11.7673C21.2424 12.4843 20.9829 13.0947 20.4822 13.5985C19.9822 14.0736 19.3737 14.3021 18.6568 14.2838L13.2364 14.1457L13.0994 19.523C13.0811 20.24 12.822 20.8361 12.322 21.3112C11.8507 21.787 11.2423 22.0155 10.4966 21.9965C9.77961 21.9782 9.18356 21.7191 8.70844 21.2191C8.23331 20.7192 8.00488 20.1107 8.02315 19.3937L8.16016 14.0163L2.73979 13.8782C2.02281 13.86 1.42676 13.6008 0.951637 13.1009C0.477243 12.5722 0.24918 11.9494 0.267449 11.2324C0.285717 10.5155 0.544836 9.9194 1.04481 9.44428C1.54477 8.96915 2.15325 8.74072 2.87023 8.75899L8.2906 8.8971L8.42871 3.47673C8.44698 2.75975 8.7061 2.1637 9.20607 1.68857C9.70603 1.21345 10.3145 0.98502 11.0315 1.00329C11.7485 1.02156 12.3445 1.28068 12.8196 1.78064C13.2948 2.28061 13.5232 2.88909 13.5049 3.60607L13.3668 9.02644L18.7872 9.16455Z" fill="white"/>
</svg>
