<svg width="51" height="43" viewBox="0 0 51 43" fill="none" xmlns="http://www.w3.org/2000/svg">
<path d="M21.5498 17.4232C21.5498 18.605 20.5918 19.5629 19.4101 19.5629C18.2284 19.5629 17.2704 18.605 17.2704 17.4232C17.2704 16.2415 18.2284 15.2835 19.4101 15.2835C20.5918 15.2835 21.5498 16.2415 21.5498 17.4232Z" fill="white"/>
<path d="M33.7649 17.4232C33.7649 18.605 32.8069 19.5629 31.6252 19.5629C30.4435 19.5629 29.4855 18.605 29.4855 17.4232C29.4855 16.2415 30.4435 15.2835 31.6252 15.2835C32.8069 15.2835 33.7649 16.2415 33.7649 17.4232Z" fill="white"/>
<path fill-rule="evenodd" clip-rule="evenodd" d="M25.5 3.97372C13.6114 3.97372 3.97372 13.6114 3.97372 25.5C3.97372 26.5973 3.08417 27.4869 1.98686 27.4869C0.889548 27.4869 0 26.5973 0 25.5C0 11.4167 11.4167 0 25.5 0C39.5833 0 51 11.4167 51 25.5C51 26.5973 50.1105 27.4869 49.0131 27.4869C47.9158 27.4869 47.0263 26.5973 47.0263 25.5C47.0263 13.6114 37.3886 3.97372 25.5 3.97372Z" fill="white"/>
<path fill-rule="evenodd" clip-rule="evenodd" d="M1.98686 23.5131C3.08417 23.5131 3.97372 24.4027 3.97372 25.5C3.97372 32.5189 9.66367 38.2089 16.6826 38.2089C23.7015 38.2089 29.3914 32.5189 29.3914 25.5C29.3914 24.4027 30.281 23.5131 31.3783 23.5131C32.4756 23.5131 33.3651 24.4027 33.3651 25.5C33.3651 34.7135 25.8961 42.1826 16.6826 42.1826C7.46904 42.1826 0 34.7135 0 25.5C0 24.4027 0.889548 23.5131 1.98686 23.5131Z" fill="white"/>
<path fill-rule="evenodd" clip-rule="evenodd" d="M19.6217 23.5131C20.719 23.5131 21.6086 24.4027 21.6086 25.5C21.6086 32.5189 27.2985 38.2089 34.3174 38.2089C41.3363 38.2089 47.0263 32.5189 47.0263 25.5C47.0263 24.4027 47.9158 23.5131 49.0131 23.5131C50.1105 23.5131 51 24.4027 51 25.5C51 34.7135 43.531 42.1826 34.3174 42.1826C25.1039 42.1826 17.6349 34.7135 17.6349 25.5C17.6349 24.4027 18.5244 23.5131 19.6217 23.5131Z" fill="white"/>
</svg>
