<?xml version="1.0" standalone="no"?>
<!DOCTYPE svg PUBLIC "-//W3C//DTD SVG 20010904//EN"
 "http://www.w3.org/TR/2001/REC-SVG-20010904/DTD/svg10.dtd">
<svg version="1.0" xmlns="http://www.w3.org/2000/svg"
 width="213.000000pt" height="213.000000pt" viewBox="0 0 213.000000 213.000000"
 preserveAspectRatio="xMidYMid meet">
<metadata>
Created by potrace 1.11, written by Peter Selinger 2001-2013
</metadata>
<g transform="translate(0.000000,213.000000) scale(0.100000,-0.100000)"
fill="#000000" stroke="none">
<path d="M331 2114 c-80 -21 -144 -60 -205 -124 -61 -64 -90 -114 -111 -197
-23 -86 -22 -1371 0 -1458 22 -84 60 -147 125 -209 64 -61 114 -90 197 -111
85 -22 1371 -22 1456 0 83 21 133 50 197 111 65 62 103 125 125 209 23 88 23
1372 0 1460 -22 84 -60 147 -125 209 -64 61 -114 90 -197 111 -84 22 -1380 21
-1462 -1z m33 -290 c11 -11 16 -35 16 -84 l0 -68 71 -4 c74 -4 99 -19 99 -59
0 -35 -28 -49 -99 -49 l-68 0 -6 -72 c-6 -75 -20 -98 -58 -98 -35 0 -49 28
-49 101 l0 69 -65 0 c-70 0 -105 20 -105 59 0 37 27 51 100 51 l68 0 4 71 c3
55 8 74 23 85 25 18 50 18 69 -2z m849 -249 c295 -62 515 -349 494 -646 -19
-283 -303 -462 -564 -357 l-63 26 -62 -26 c-161 -64 -337 -26 -452 99 -110
119 -141 258 -96 435 86 338 407 541 743 469z"/>
<path d="M952 1474 c-98 -26 -164 -65 -242 -144 -82 -82 -120 -146 -146 -250
-22 -87 -15 -199 15 -260 50 -99 148 -168 252 -177 56 -6 159 12 159 27 0 4
-9 19 -20 33 -42 53 -73 139 -78 212 -4 67 -3 71 19 81 51 22 60 11 78 -88 11
-59 35 -115 71 -158 l20 -25 20 25 c37 45 61 101 71 164 10 67 35 98 69 89 57
-15 26 -204 -50 -300 -11 -14 -20 -29 -20 -33 0 -5 23 -14 51 -20 192 -46 374
88 387 285 10 149 -52 299 -167 407 -74 71 -142 109 -236 133 -73 19 -182 18
-253 -1z m12 -280 c24 -24 20 -61 -9 -80 -23 -15 -27 -15 -50 0 -17 11 -25 26
-25 46 0 45 52 66 84 34z m297 6 c26 -14 25 -62 -2 -86 -19 -17 -23 -17 -47
-3 -32 17 -40 59 -17 83 19 19 38 20 66 6z"/>
</g>
</svg>
